<mxfile host="app.diagrams.net" agent="Mozilla/5.0 (Windows NT 10.0; Win64; x64) AppleWebKit/537.36 (KHTML, like Gecko) Chrome/136.0.0.0 Safari/537.36" version="27.1.1">
  <diagram name="Page-1" id="kHoENn9sEQDzVtlVh58a">
    <mxGraphModel dx="1426" dy="785" grid="1" gridSize="10" guides="1" tooltips="1" connect="1" arrows="1" fold="1" page="1" pageScale="1" pageWidth="850" pageHeight="1100" math="0" shadow="0">
      <root>
        <mxCell id="0" />
        <mxCell id="1" parent="0" />
        <mxCell id="HQp5Z8LLl4lNZSDY9q0Q-1" value="Actor" style="shape=umlActor;verticalLabelPosition=bottom;verticalAlign=top;html=1;" vertex="1" parent="1">
          <mxGeometry x="130" y="120" width="30" height="60" as="geometry" />
        </mxCell>
        <mxCell id="HQp5Z8LLl4lNZSDY9q0Q-7" value="user" style="shape=umlLifeline;perimeter=lifelinePerimeter;whiteSpace=wrap;html=1;container=1;dropTarget=0;collapsible=0;recursiveResize=0;outlineConnect=0;portConstraint=eastwest;newEdgeStyle={&quot;curved&quot;:0,&quot;rounded&quot;:0};" vertex="1" parent="1">
          <mxGeometry x="100" y="210" width="100" height="650" as="geometry" />
        </mxCell>
        <mxCell id="HQp5Z8LLl4lNZSDY9q0Q-10" value="" style="html=1;points=[[0,0,0,0,5],[0,1,0,0,-5],[1,0,0,0,5],[1,1,0,0,-5]];perimeter=orthogonalPerimeter;outlineConnect=0;targetShapes=umlLifeline;portConstraint=eastwest;newEdgeStyle={&quot;curved&quot;:0,&quot;rounded&quot;:0};" vertex="1" parent="HQp5Z8LLl4lNZSDY9q0Q-7">
          <mxGeometry x="45" y="120" width="10" height="80" as="geometry" />
        </mxCell>
        <mxCell id="HQp5Z8LLl4lNZSDY9q0Q-30" value="" style="html=1;points=[[0,0,0,0,5],[0,1,0,0,-5],[1,0,0,0,5],[1,1,0,0,-5]];perimeter=orthogonalPerimeter;outlineConnect=0;targetShapes=umlLifeline;portConstraint=eastwest;newEdgeStyle={&quot;curved&quot;:0,&quot;rounded&quot;:0};" vertex="1" parent="HQp5Z8LLl4lNZSDY9q0Q-7">
          <mxGeometry x="45" y="260" width="10" height="80" as="geometry" />
        </mxCell>
        <mxCell id="HQp5Z8LLl4lNZSDY9q0Q-45" value="" style="html=1;points=[[0,0,0,0,5],[0,1,0,0,-5],[1,0,0,0,5],[1,1,0,0,-5]];perimeter=orthogonalPerimeter;outlineConnect=0;targetShapes=umlLifeline;portConstraint=eastwest;newEdgeStyle={&quot;curved&quot;:0,&quot;rounded&quot;:0};" vertex="1" parent="HQp5Z8LLl4lNZSDY9q0Q-7">
          <mxGeometry x="45" y="400" width="10" height="80" as="geometry" />
        </mxCell>
        <mxCell id="HQp5Z8LLl4lNZSDY9q0Q-56" value="" style="html=1;points=[[0,0,0,0,5],[0,1,0,0,-5],[1,0,0,0,5],[1,1,0,0,-5]];perimeter=orthogonalPerimeter;outlineConnect=0;targetShapes=umlLifeline;portConstraint=eastwest;newEdgeStyle={&quot;curved&quot;:0,&quot;rounded&quot;:0};" vertex="1" parent="HQp5Z8LLl4lNZSDY9q0Q-7">
          <mxGeometry x="45" y="530" width="10" height="80" as="geometry" />
        </mxCell>
        <mxCell id="HQp5Z8LLl4lNZSDY9q0Q-8" value="website" style="shape=umlLifeline;perimeter=lifelinePerimeter;whiteSpace=wrap;html=1;container=1;dropTarget=0;collapsible=0;recursiveResize=0;outlineConnect=0;portConstraint=eastwest;newEdgeStyle={&quot;curved&quot;:0,&quot;rounded&quot;:0};" vertex="1" parent="1">
          <mxGeometry x="310" y="210" width="100" height="660" as="geometry" />
        </mxCell>
        <mxCell id="HQp5Z8LLl4lNZSDY9q0Q-11" value="" style="html=1;points=[[0,0,0,0,5],[0,1,0,0,-5],[1,0,0,0,5],[1,1,0,0,-5]];perimeter=orthogonalPerimeter;outlineConnect=0;targetShapes=umlLifeline;portConstraint=eastwest;newEdgeStyle={&quot;curved&quot;:0,&quot;rounded&quot;:0};" vertex="1" parent="HQp5Z8LLl4lNZSDY9q0Q-8">
          <mxGeometry x="45" y="120" width="10" height="80" as="geometry" />
        </mxCell>
        <mxCell id="HQp5Z8LLl4lNZSDY9q0Q-31" value="" style="html=1;points=[[0,0,0,0,5],[0,1,0,0,-5],[1,0,0,0,5],[1,1,0,0,-5]];perimeter=orthogonalPerimeter;outlineConnect=0;targetShapes=umlLifeline;portConstraint=eastwest;newEdgeStyle={&quot;curved&quot;:0,&quot;rounded&quot;:0};" vertex="1" parent="HQp5Z8LLl4lNZSDY9q0Q-8">
          <mxGeometry x="45" y="260" width="10" height="80" as="geometry" />
        </mxCell>
        <mxCell id="HQp5Z8LLl4lNZSDY9q0Q-46" value="" style="html=1;points=[[0,0,0,0,5],[0,1,0,0,-5],[1,0,0,0,5],[1,1,0,0,-5]];perimeter=orthogonalPerimeter;outlineConnect=0;targetShapes=umlLifeline;portConstraint=eastwest;newEdgeStyle={&quot;curved&quot;:0,&quot;rounded&quot;:0};" vertex="1" parent="HQp5Z8LLl4lNZSDY9q0Q-8">
          <mxGeometry x="45" y="400" width="10" height="80" as="geometry" />
        </mxCell>
        <mxCell id="HQp5Z8LLl4lNZSDY9q0Q-57" value="" style="html=1;points=[[0,0,0,0,5],[0,1,0,0,-5],[1,0,0,0,5],[1,1,0,0,-5]];perimeter=orthogonalPerimeter;outlineConnect=0;targetShapes=umlLifeline;portConstraint=eastwest;newEdgeStyle={&quot;curved&quot;:0,&quot;rounded&quot;:0};" vertex="1" parent="HQp5Z8LLl4lNZSDY9q0Q-8">
          <mxGeometry x="50" y="530" width="10" height="80" as="geometry" />
        </mxCell>
        <mxCell id="HQp5Z8LLl4lNZSDY9q0Q-9" value="server" style="shape=umlLifeline;perimeter=lifelinePerimeter;whiteSpace=wrap;html=1;container=1;dropTarget=0;collapsible=0;recursiveResize=0;outlineConnect=0;portConstraint=eastwest;newEdgeStyle={&quot;curved&quot;:0,&quot;rounded&quot;:0};" vertex="1" parent="1">
          <mxGeometry x="520" y="210" width="100" height="660" as="geometry" />
        </mxCell>
        <mxCell id="HQp5Z8LLl4lNZSDY9q0Q-12" value="" style="html=1;points=[[0,0,0,0,5],[0,1,0,0,-5],[1,0,0,0,5],[1,1,0,0,-5]];perimeter=orthogonalPerimeter;outlineConnect=0;targetShapes=umlLifeline;portConstraint=eastwest;newEdgeStyle={&quot;curved&quot;:0,&quot;rounded&quot;:0};" vertex="1" parent="HQp5Z8LLl4lNZSDY9q0Q-9">
          <mxGeometry x="45" y="120" width="10" height="80" as="geometry" />
        </mxCell>
        <mxCell id="HQp5Z8LLl4lNZSDY9q0Q-32" value="" style="html=1;points=[[0,0,0,0,5],[0,1,0,0,-5],[1,0,0,0,5],[1,1,0,0,-5]];perimeter=orthogonalPerimeter;outlineConnect=0;targetShapes=umlLifeline;portConstraint=eastwest;newEdgeStyle={&quot;curved&quot;:0,&quot;rounded&quot;:0};" vertex="1" parent="HQp5Z8LLl4lNZSDY9q0Q-9">
          <mxGeometry x="45" y="260" width="10" height="80" as="geometry" />
        </mxCell>
        <mxCell id="HQp5Z8LLl4lNZSDY9q0Q-47" value="" style="html=1;points=[[0,0,0,0,5],[0,1,0,0,-5],[1,0,0,0,5],[1,1,0,0,-5]];perimeter=orthogonalPerimeter;outlineConnect=0;targetShapes=umlLifeline;portConstraint=eastwest;newEdgeStyle={&quot;curved&quot;:0,&quot;rounded&quot;:0};" vertex="1" parent="HQp5Z8LLl4lNZSDY9q0Q-9">
          <mxGeometry x="50" y="400" width="10" height="80" as="geometry" />
        </mxCell>
        <mxCell id="HQp5Z8LLl4lNZSDY9q0Q-13" value="" style="endArrow=open;endFill=1;endSize=12;html=1;rounded=0;exitX=1;exitY=0;exitDx=0;exitDy=5;exitPerimeter=0;" edge="1" parent="1" source="HQp5Z8LLl4lNZSDY9q0Q-10" target="HQp5Z8LLl4lNZSDY9q0Q-8">
          <mxGeometry width="160" relative="1" as="geometry">
            <mxPoint x="170" y="350" as="sourcePoint" />
            <mxPoint x="330" y="350" as="targetPoint" />
          </mxGeometry>
        </mxCell>
        <mxCell id="HQp5Z8LLl4lNZSDY9q0Q-14" value="" style="endArrow=open;endFill=1;endSize=12;html=1;rounded=0;" edge="1" parent="1">
          <mxGeometry width="160" relative="1" as="geometry">
            <mxPoint x="370" y="350" as="sourcePoint" />
            <mxPoint x="565" y="350" as="targetPoint" />
            <Array as="points">
              <mxPoint x="475" y="350" />
            </Array>
          </mxGeometry>
        </mxCell>
        <mxCell id="HQp5Z8LLl4lNZSDY9q0Q-24" value="" style="endArrow=open;endFill=1;endSize=12;html=1;rounded=0;" edge="1" parent="1" source="HQp5Z8LLl4lNZSDY9q0Q-11" target="HQp5Z8LLl4lNZSDY9q0Q-10">
          <mxGeometry width="160" relative="1" as="geometry">
            <mxPoint x="200" y="380" as="sourcePoint" />
            <mxPoint x="405" y="380" as="targetPoint" />
            <Array as="points">
              <mxPoint x="260" y="380" />
            </Array>
          </mxGeometry>
        </mxCell>
        <mxCell id="HQp5Z8LLl4lNZSDY9q0Q-29" value="4.accepts or rejects" style="edgeLabel;html=1;align=center;verticalAlign=middle;resizable=0;points=[];" vertex="1" connectable="0" parent="HQp5Z8LLl4lNZSDY9q0Q-24">
          <mxGeometry x="0.27" y="4" relative="1" as="geometry">
            <mxPoint x="12" y="6" as="offset" />
          </mxGeometry>
        </mxCell>
        <mxCell id="HQp5Z8LLl4lNZSDY9q0Q-25" value="" style="endArrow=open;endFill=1;endSize=12;html=1;rounded=0;" edge="1" parent="1">
          <mxGeometry width="160" relative="1" as="geometry">
            <mxPoint x="569.5" y="370" as="sourcePoint" />
            <mxPoint x="359.5" y="370" as="targetPoint" />
          </mxGeometry>
        </mxCell>
        <mxCell id="HQp5Z8LLl4lNZSDY9q0Q-26" value="1.enter login creditionals" style="text;html=1;align=center;verticalAlign=middle;resizable=0;points=[];autosize=1;strokeColor=none;fillColor=none;" vertex="1" parent="1">
          <mxGeometry x="145" y="308" width="150" height="30" as="geometry" />
        </mxCell>
        <mxCell id="HQp5Z8LLl4lNZSDY9q0Q-27" value="2.send reuest to verify" style="text;html=1;align=center;verticalAlign=middle;resizable=0;points=[];autosize=1;strokeColor=none;fillColor=none;" vertex="1" parent="1">
          <mxGeometry x="380" y="328" width="140" height="30" as="geometry" />
        </mxCell>
        <mxCell id="HQp5Z8LLl4lNZSDY9q0Q-28" value="3.sends verification signal" style="text;html=1;align=center;verticalAlign=middle;resizable=0;points=[];autosize=1;strokeColor=none;fillColor=none;" vertex="1" parent="1">
          <mxGeometry x="370" y="368" width="160" height="30" as="geometry" />
        </mxCell>
        <mxCell id="HQp5Z8LLl4lNZSDY9q0Q-33" value="" style="endArrow=open;endFill=1;endSize=12;html=1;rounded=0;" edge="1" parent="1" source="HQp5Z8LLl4lNZSDY9q0Q-44" target="HQp5Z8LLl4lNZSDY9q0Q-30">
          <mxGeometry width="160" relative="1" as="geometry">
            <mxPoint x="350" y="410" as="sourcePoint" />
            <mxPoint x="510" y="410" as="targetPoint" />
          </mxGeometry>
        </mxCell>
        <mxCell id="HQp5Z8LLl4lNZSDY9q0Q-34" value="5.display cources" style="text;html=1;align=center;verticalAlign=middle;resizable=0;points=[];autosize=1;strokeColor=none;fillColor=none;" vertex="1" parent="1">
          <mxGeometry x="190" y="460" width="120" height="30" as="geometry" />
        </mxCell>
        <mxCell id="HQp5Z8LLl4lNZSDY9q0Q-36" value="" style="endArrow=open;endFill=1;endSize=12;html=1;rounded=0;" edge="1" parent="1" source="HQp5Z8LLl4lNZSDY9q0Q-9">
          <mxGeometry width="160" relative="1" as="geometry">
            <mxPoint x="420" y="530" as="sourcePoint" />
            <mxPoint x="360" y="530" as="targetPoint" />
          </mxGeometry>
        </mxCell>
        <mxCell id="HQp5Z8LLl4lNZSDY9q0Q-37" value="" style="endArrow=open;endFill=1;endSize=12;html=1;rounded=0;" edge="1" parent="1" source="HQp5Z8LLl4lNZSDY9q0Q-31">
          <mxGeometry width="160" relative="1" as="geometry">
            <mxPoint x="380" y="500" as="sourcePoint" />
            <mxPoint x="560" y="500" as="targetPoint" />
            <Array as="points">
              <mxPoint x="485" y="500" />
            </Array>
          </mxGeometry>
        </mxCell>
        <mxCell id="HQp5Z8LLl4lNZSDY9q0Q-38" value="7.checks if course is available or not" style="text;html=1;align=center;verticalAlign=middle;resizable=0;points=[];autosize=1;strokeColor=none;fillColor=none;" vertex="1" parent="1">
          <mxGeometry x="350" y="490" width="220" height="30" as="geometry" />
        </mxCell>
        <mxCell id="HQp5Z8LLl4lNZSDY9q0Q-40" value="8.sends signal" style="text;html=1;align=center;verticalAlign=middle;resizable=0;points=[];autosize=1;strokeColor=none;fillColor=none;" vertex="1" parent="1">
          <mxGeometry x="410" y="528" width="100" height="30" as="geometry" />
        </mxCell>
        <mxCell id="HQp5Z8LLl4lNZSDY9q0Q-41" value="" style="endArrow=open;endFill=1;endSize=12;html=1;rounded=0;" edge="1" parent="1">
          <mxGeometry width="160" relative="1" as="geometry">
            <mxPoint x="160" y="490" as="sourcePoint" />
            <mxPoint x="360" y="490" as="targetPoint" />
            <Array as="points">
              <mxPoint x="255" y="490" />
            </Array>
          </mxGeometry>
        </mxCell>
        <mxCell id="HQp5Z8LLl4lNZSDY9q0Q-42" value="6.selects cources" style="edgeLabel;html=1;align=center;verticalAlign=middle;resizable=0;points=[];" vertex="1" connectable="0" parent="HQp5Z8LLl4lNZSDY9q0Q-41">
          <mxGeometry x="0.1317" y="-5" relative="1" as="geometry">
            <mxPoint x="-21" y="5" as="offset" />
          </mxGeometry>
        </mxCell>
        <mxCell id="HQp5Z8LLl4lNZSDY9q0Q-43" value="" style="endArrow=open;endFill=1;endSize=12;html=1;rounded=0;exitX=0;exitY=1;exitDx=0;exitDy=-5;exitPerimeter=0;" edge="1" parent="1">
          <mxGeometry width="160" relative="1" as="geometry">
            <mxPoint x="362.5" y="474.5" as="sourcePoint" />
            <mxPoint x="157.5" y="474.5" as="targetPoint" />
          </mxGeometry>
        </mxCell>
        <mxCell id="HQp5Z8LLl4lNZSDY9q0Q-48" value="" style="endArrow=open;endFill=1;endSize=12;html=1;rounded=0;" edge="1" parent="1" source="HQp5Z8LLl4lNZSDY9q0Q-8" target="HQp5Z8LLl4lNZSDY9q0Q-45">
          <mxGeometry width="160" relative="1" as="geometry">
            <mxPoint x="200" y="650" as="sourcePoint" />
            <mxPoint x="220" y="650" as="targetPoint" />
            <Array as="points" />
          </mxGeometry>
        </mxCell>
        <mxCell id="HQp5Z8LLl4lNZSDY9q0Q-50" value="10.requests payment" style="text;html=1;align=center;verticalAlign=middle;resizable=0;points=[];autosize=1;strokeColor=none;fillColor=none;" vertex="1" parent="1">
          <mxGeometry x="180" y="588" width="140" height="30" as="geometry" />
        </mxCell>
        <mxCell id="HQp5Z8LLl4lNZSDY9q0Q-51" value="" style="endArrow=open;endFill=1;endSize=12;html=1;rounded=0;" edge="1" parent="1" source="HQp5Z8LLl4lNZSDY9q0Q-45" target="HQp5Z8LLl4lNZSDY9q0Q-8">
          <mxGeometry width="160" relative="1" as="geometry">
            <mxPoint x="350" y="510" as="sourcePoint" />
            <mxPoint x="510" y="510" as="targetPoint" />
          </mxGeometry>
        </mxCell>
        <mxCell id="HQp5Z8LLl4lNZSDY9q0Q-52" value="11.payment successful" style="text;html=1;align=center;verticalAlign=middle;resizable=0;points=[];autosize=1;strokeColor=none;fillColor=none;" vertex="1" parent="1">
          <mxGeometry x="160" y="618" width="140" height="30" as="geometry" />
        </mxCell>
        <mxCell id="HQp5Z8LLl4lNZSDY9q0Q-53" value="" style="endArrow=open;endFill=1;endSize=12;html=1;rounded=0;" edge="1" parent="1" source="HQp5Z8LLl4lNZSDY9q0Q-46" target="HQp5Z8LLl4lNZSDY9q0Q-9">
          <mxGeometry width="160" relative="1" as="geometry">
            <mxPoint x="420" y="620" as="sourcePoint" />
            <mxPoint x="220" y="620" as="targetPoint" />
            <Array as="points">
              <mxPoint x="370" y="660" />
            </Array>
          </mxGeometry>
        </mxCell>
        <mxCell id="HQp5Z8LLl4lNZSDY9q0Q-55" value="12.saves the user data" style="text;html=1;align=center;verticalAlign=middle;resizable=0;points=[];autosize=1;strokeColor=none;fillColor=none;" vertex="1" parent="1">
          <mxGeometry x="380" y="638" width="140" height="30" as="geometry" />
        </mxCell>
        <mxCell id="HQp5Z8LLl4lNZSDY9q0Q-58" value="" style="endArrow=open;endFill=1;endSize=12;html=1;rounded=0;exitX=1;exitY=0;exitDx=0;exitDy=5;exitPerimeter=0;entryX=0;entryY=0;entryDx=0;entryDy=5;entryPerimeter=0;" edge="1" parent="1" source="HQp5Z8LLl4lNZSDY9q0Q-56" target="HQp5Z8LLl4lNZSDY9q0Q-57">
          <mxGeometry width="160" relative="1" as="geometry">
            <mxPoint x="160" y="750" as="sourcePoint" />
            <mxPoint x="320" y="750" as="targetPoint" />
          </mxGeometry>
        </mxCell>
        <mxCell id="HQp5Z8LLl4lNZSDY9q0Q-59" value="13.logout requests" style="text;html=1;align=center;verticalAlign=middle;resizable=0;points=[];autosize=1;strokeColor=none;fillColor=none;" vertex="1" parent="1">
          <mxGeometry x="180" y="718" width="120" height="30" as="geometry" />
        </mxCell>
        <mxCell id="HQp5Z8LLl4lNZSDY9q0Q-60" value="" style="endArrow=open;endFill=1;endSize=12;html=1;rounded=0;" edge="1" parent="1" source="HQp5Z8LLl4lNZSDY9q0Q-57" target="HQp5Z8LLl4lNZSDY9q0Q-56">
          <mxGeometry width="160" relative="1" as="geometry">
            <mxPoint x="350" y="610" as="sourcePoint" />
            <mxPoint x="510" y="610" as="targetPoint" />
          </mxGeometry>
        </mxCell>
        <mxCell id="HQp5Z8LLl4lNZSDY9q0Q-61" value="14.terminates request" style="text;html=1;align=center;verticalAlign=middle;resizable=0;points=[];autosize=1;strokeColor=none;fillColor=none;" vertex="1" parent="1">
          <mxGeometry x="190" y="758" width="140" height="30" as="geometry" />
        </mxCell>
        <mxCell id="HQp5Z8LLl4lNZSDY9q0Q-62" value="" style="endArrow=open;endFill=1;endSize=12;html=1;rounded=0;" edge="1" parent="1" source="HQp5Z8LLl4lNZSDY9q0Q-8" target="HQp5Z8LLl4lNZSDY9q0Q-44">
          <mxGeometry width="160" relative="1" as="geometry">
            <mxPoint x="360" y="540" as="sourcePoint" />
            <mxPoint x="155" y="540" as="targetPoint" />
          </mxGeometry>
        </mxCell>
        <mxCell id="HQp5Z8LLl4lNZSDY9q0Q-44" value="9.proceed for registration" style="text;html=1;align=center;verticalAlign=middle;resizable=0;points=[];autosize=1;strokeColor=none;fillColor=none;" vertex="1" parent="1">
          <mxGeometry x="170" y="520" width="160" height="30" as="geometry" />
        </mxCell>
      </root>
    </mxGraphModel>
  </diagram>
</mxfile>
